# xmcd
#
# Track frame offsets: 
#        150
#        15857
#        29323
#        48452
#        70821
#        86942
#        100660
#        116664
#        130430
#        155896
#
# Disc length: 2425 seconds
#
# Revision: 0
# Processed by: cddbd v1.5.2PL0 Copyright (c) Steve Scherf et al.
# Submitted via: ExactAudioCopy v1.0b4
#
DISCID=8209770a
DTITLE=Johnny Mars - Life On Mars  (LP)
DYEAR=1984
DGENRE=Blues
TTITLE0=Born Under A Bad Sign
TTITLE1=Don't Start Me Talking
TTITLE2=Back Door Man
TTITLE3=Steal Away
TTITLE4=Standing In Line
TTITLE5=Hot Lips Boogie
TTITLE6=I Can't Take A Jealous Woman
TTITLE7=Get On Up
TTITLE8=Desert Island
TTITLE9=Keep On Swinging
EXTD=
EXTT0=
EXTT1=
EXTT2=
EXTT3=
EXTT4=
EXTT5=
EXTT6=
EXTT7=
EXTT8=
EXTT9=
PLAYORDER=
